<svg width="187" height="45" viewBox="0 0 187 45" fill="none" xmlns="http://www.w3.org/2000/svg">
    <mask id="mask0_7_7358" style="mask-type:luminance" maskUnits="userSpaceOnUse" x="0" y="0" width="187" height="45">
        <path d="M186.121 0H0V45H186.121V0Z" fill="white" />
    </mask>
    <g mask="url(#mask0_7_7358)">
        <path
            d="M77.748 17.0018C76.0407 16.9598 74.3473 17.3195 72.8045 18.052C71.2617 18.7845 69.9126 19.8692 68.866 21.2188C67.8877 22.5286 67.2835 24.0795 67.118 25.7058C66.9576 27.4093 67.2708 29.1241 68.023 30.6608C68.7155 32.2159 69.8291 33.5464 71.238 34.5018C72.642 35.4296 74.2778 35.9455 75.96 35.9908C79.3821 35.9975 82.6673 34.6476 85.096 32.2368C85.9942 31.2982 86.6579 30.1606 87.033 28.9168L83.186 27.3368C82.9003 28.0986 82.4678 28.7968 81.913 29.3918C81.3021 30.0185 80.5767 30.5223 79.776 30.8758C78.8993 31.3109 77.9337 31.5368 76.955 31.5358C76.0867 31.5263 75.2414 31.2548 74.53 30.7568C74.1358 30.4782 73.7864 30.141 73.494 29.7568L86.013 23.9188C85.938 23.7058 85.855 23.4738 85.766 23.2288C85.677 22.9838 85.589 22.7688 85.502 22.5838C84.7967 20.9545 83.6623 19.5472 82.22 18.5118C80.9011 17.5978 79.3511 17.0745 77.748 17.0018ZM72.687 23.1848C73.178 22.507 73.8402 21.9717 74.606 21.6338C75.3516 21.2653 76.1828 21.1046 77.012 21.1688C77.7881 21.2379 78.5299 21.5207 79.155 21.9858C79.5945 22.317 79.972 22.7233 80.27 23.1858L72.133 26.9798C71.9749 26.4592 71.9072 25.9153 71.933 25.3718C71.9724 24.5842 72.2357 23.8241 72.692 23.1808"
            fill="white" />
        <path
            d="M112.393 11.9561H106.278L95.751 23.0481V11.9561H90.283V35.7291H95.751V29.7291L98.937 26.4031L106.549 35.7301H112.969L102.549 22.5491L112.393 11.9561Z"
            fill="white" />
        <path
            d="M127.521 18.322C125.991 17.5629 124.305 17.1735 122.597 17.1853C120.889 17.1971 119.208 17.6098 117.689 18.39C116.249 19.1635 115.045 20.3138 114.208 21.718C113.342 23.1942 112.901 24.881 112.934 26.592C112.904 28.2939 113.351 29.9702 114.225 31.431C115.105 32.8657 116.369 34.0249 117.875 34.777C120.973 36.2294 124.521 36.3941 127.741 35.235C128.952 34.7644 130.034 34.0135 130.899 33.044L128.083 29.99C127.502 30.5595 126.816 31.0097 126.062 31.315C125.243 31.6246 124.373 31.7746 123.498 31.757C122.52 31.7805 121.55 31.5772 120.663 31.163C119.88 30.7865 119.229 30.1825 118.794 29.43C118.555 29.012 118.381 28.5602 118.277 28.09H132.09C132.112 27.864 132.135 27.62 132.158 27.36C132.181 27.1 132.193 26.868 132.193 26.66C132.242 24.8847 131.808 23.1294 130.936 21.582C130.128 20.1952 128.944 19.0648 127.522 18.321M120.322 21.786C121.054 21.3791 121.88 21.1737 122.717 21.191C123.548 21.1727 124.369 21.3782 125.093 21.786C125.769 22.1755 126.323 22.7455 126.693 23.432C126.95 23.9192 127.12 24.448 127.193 24.994H118.214C118.291 24.4546 118.46 23.9323 118.714 23.45C119.082 22.7556 119.64 22.1799 120.322 21.79"
            fill="white" />
        <path
            d="M149.036 19.378C148.623 18.9167 148.141 18.5209 147.609 18.204C146.379 17.5053 144.982 17.1532 143.568 17.185C141.943 17.1611 140.34 17.5587 138.915 18.339C137.542 19.1022 136.407 20.231 135.637 21.6C134.805 23.1294 134.391 24.8514 134.437 26.592C134.393 28.3219 134.807 30.0327 135.637 31.551C136.408 32.9241 137.542 34.0585 138.915 34.83C140.335 35.6206 141.938 36.0241 143.563 36C145.006 36.0419 146.432 35.6899 147.69 34.982C148.293 34.6193 148.827 34.1539 149.269 33.607V35.73H154.33V10.53H149.03L149.036 19.378ZM148.51 29.293C148.121 30.0196 147.54 30.6248 146.829 31.042C146.116 31.4519 145.306 31.663 144.484 31.653C143.652 31.6657 142.831 31.4547 142.108 31.042C141.397 30.6256 140.815 30.0202 140.427 29.293C139.991 28.4614 139.774 27.5319 139.799 26.593C139.77 25.6487 139.987 24.7129 140.427 23.877C140.819 23.1569 141.4 22.5579 142.108 22.145C142.831 21.7312 143.651 21.5198 144.484 21.533C145.307 21.5226 146.117 21.734 146.829 22.145C147.537 22.5585 148.118 23.1574 148.51 23.877C148.95 24.7132 149.166 25.6487 149.138 26.593C149.162 27.5318 148.946 28.4611 148.51 29.293Z"
            fill="white" />
        <path
            d="M173.079 19.154C171.224 17.7392 168.922 17.0402 166.594 17.185C165.148 17.184 163.708 17.3784 162.314 17.763C161.029 18.093 159.81 18.6442 158.714 19.392L160.614 23.092C161.331 22.539 162.142 22.1191 163.007 21.852C163.934 21.5489 164.902 21.3943 165.877 21.394C167.017 21.3027 168.15 21.6416 169.052 22.344C169.405 22.6851 169.68 23.0983 169.859 23.5554C170.038 24.0125 170.117 24.5028 170.089 24.993H165.88C164.344 24.942 162.812 25.1794 161.364 25.693C160.342 26.0546 159.457 26.7252 158.833 27.612C158.308 28.4656 158.031 29.4487 158.034 30.4509C158.037 31.453 158.32 32.4345 158.85 33.285C159.43 34.153 160.242 34.8411 161.193 35.271C162.346 35.785 163.6 36.0344 164.862 36.001C166.234 36.0582 167.595 35.7408 168.8 35.083C169.476 34.6789 170.037 34.1089 170.431 33.427V35.727H175.388V25.302C175.388 22.5166 174.618 20.4673 173.079 19.154ZM168.563 31.804C167.844 32.2282 167.021 32.4458 166.186 32.433C165.411 32.4769 164.642 32.2685 163.995 31.839C163.739 31.6567 163.532 31.4138 163.392 31.132C163.252 30.8502 163.185 30.5383 163.195 30.224C163.19 29.9333 163.251 29.6453 163.372 29.3811C163.493 29.1169 163.672 28.8831 163.895 28.697C164.656 28.2092 165.56 27.9951 166.458 28.09H170.092V29.957C169.809 30.7304 169.269 31.3833 168.563 31.807"
            fill="white" />
        <path
            d="M182.827 14.9089C183.264 14.9299 183.7 14.8641 184.111 14.7155C184.522 14.5669 184.9 14.3382 185.222 14.0429C185.517 13.7611 185.75 13.4204 185.905 13.043C186.06 12.6655 186.134 12.2597 186.122 11.8519C186.133 11.4626 186.056 11.0758 185.898 10.7201C185.739 10.3645 185.503 10.0489 185.206 9.79686C184.54 9.24489 183.692 8.95982 182.828 8.99686C181.955 8.96035 181.102 9.26482 180.45 9.84586C180.161 10.1153 179.931 10.4413 179.773 10.8036C179.615 11.1659 179.534 11.5568 179.534 11.9519C179.534 12.347 179.615 12.7378 179.773 13.1001C179.931 13.4625 180.161 13.7885 180.45 14.0579C181.102 14.6393 181.955 14.9438 182.828 14.9069"
            fill="white" />
        <path d="M185.475 17.4561H180.177V35.7281H185.475V17.4561Z" fill="white" />
        <path
            d="M33.794 42.2259C33.794 42.7747 33.6313 43.3112 33.3264 43.7675C33.0215 44.2239 32.5882 44.5795 32.0812 44.7896C31.5742 44.9997 31.0163 45.0547 30.478 44.9477C29.9397 44.8407 29.4453 44.5765 29.0572 44.1885C28.669 43.8005 28.4046 43.3061 28.2975 42.7679C28.1903 42.2297 28.2451 41.6718 28.455 41.1647C28.6648 40.6576 29.0204 40.2241 29.4766 39.9191C29.9328 39.614 30.4692 39.4511 31.018 39.4509C31.3825 39.4508 31.7435 39.5225 32.0803 39.6619C32.4171 39.8013 32.7231 40.0057 32.9809 40.2634C33.2387 40.521 33.4432 40.827 33.5827 41.1637C33.7222 41.5005 33.794 41.8614 33.794 42.2259Z"
            fill="white" />
        <path
            d="M50.126 42.2259C50.126 42.7746 49.9634 43.311 49.6587 43.7672C49.3539 44.2235 48.9208 44.5792 48.4139 44.7893C47.9071 44.9995 47.3493 45.0546 46.8111 44.9479C46.273 44.8411 45.7785 44.5773 45.3902 44.1896C45.002 43.8019 44.7374 43.3078 44.6299 42.7698C44.5223 42.2317 44.5767 41.6739 44.7861 41.1668C44.9956 40.6596 45.3506 40.2259 45.8064 39.9205C46.2623 39.6151 46.7984 39.4517 47.3471 39.4509C47.7115 39.4508 48.0724 39.5225 48.4092 39.6619C48.7459 39.8013 49.0519 40.0057 49.3096 40.2634C49.5673 40.5211 49.7717 40.8271 49.9111 41.1638C50.0505 41.5006 50.1222 41.8615 50.1221 42.2259"
            fill="white" />
        <path
            d="M45.5301 14.395C45.4343 14.1614 45.2934 13.949 45.1155 13.7699C44.9376 13.5908 44.7262 13.4485 44.4933 13.3512C44.2603 13.2538 44.0105 13.2034 43.7581 13.2026C43.5056 13.2019 43.2555 13.251 43.0221 13.347C41.8361 13.8336 40.6931 14.296 39.5931 14.734L39.4931 14.772C37.8504 15.4246 36.3004 16.0246 34.8431 16.572C29.4231 18.611 25.2281 19.966 21.9841 20.852C21.5641 20.967 21.1661 21.072 20.7771 21.172C20.4277 21.262 20.0907 21.346 19.7661 21.424L19.6541 21.451C19.3711 21.519 19.0991 21.582 18.8341 21.64L18.6671 21.678C18.4231 21.732 18.1891 21.778 17.9601 21.828L17.7851 21.864C17.5184 21.9186 17.2594 21.9683 17.0081 22.013C16.5561 22.096 16.1381 22.163 15.7511 22.219V22.21C12.1891 22.724 11.2991 22.178 11.1921 22.094C10.6611 20.794 12.2591 19.16 14.1521 17.77L14.0391 17.455L12.7971 14.019C9.75406 16.065 5.89706 19.519 7.67806 23.649C7.76016 23.8353 7.8568 24.0148 7.96706 24.186C7.98206 24.21 7.99306 24.239 8.00906 24.263C8.12161 24.4303 8.24806 24.5879 8.38706 24.734C8.40606 24.754 8.41906 24.779 8.43906 24.799C8.53203 24.8866 8.62949 24.9694 8.73106 25.047C10.0322 25.9669 11.6146 26.4017 13.2031 26.276C13.3181 26.276 13.4431 26.268 13.5631 26.266C13.7311 26.266 13.8961 26.261 14.0721 26.252C15.498 26.1624 16.9158 25.9726 18.3151 25.684C19.6151 25.428 21.0411 25.094 22.6031 24.671C30.0361 22.4995 37.3387 19.9042 44.4751 16.898C44.945 16.7048 45.3191 16.3331 45.5154 15.8644C45.7117 15.3958 45.7141 14.8684 45.5221 14.398"
            fill="white" />
        <path
            d="M67.107 5.93695C67.1077 5.08518 66.9377 4.24191 66.607 3.45695L66.545 3.32495C65.436 1.17695 62.921 0.0809475 58.817 -5.25343e-05H58.747H58.711C58.141 -0.00805253 57.53 0.00994747 56.899 0.0399475C54.4135 0.187599 51.941 0.50568 49.499 0.991947C42.2507 2.48608 35.1112 4.46656 28.129 6.91995L37.013 6.85395L41.475 6.82595C44.659 5.95895 47.609 5.26195 50.213 4.76895C60.987 2.72995 62.845 4.63795 63.113 5.04195C63.2509 5.47301 63.3009 5.92735 63.26 6.37807C63.2191 6.82879 63.0882 7.26673 62.875 7.66595C62.813 7.80595 62.744 7.94995 62.666 8.09595C62.622 8.18095 62.566 8.26695 62.519 8.35295C62.483 8.41595 62.451 8.47795 62.411 8.54195C62.371 8.60595 62.311 8.69495 62.263 8.77095C62.215 8.84695 62.163 8.92995 62.106 9.01095C62.079 9.05095 62.047 9.09095 62.02 9.12995C61.3755 10.0137 60.6475 10.8335 59.846 11.5779C57.7305 13.5107 55.4209 15.2198 52.954 16.6779C48.4571 19.3563 43.7586 21.6807 38.901 23.6299H38.889C37.8524 24.0573 36.7774 24.4863 35.664 24.9169L35.398 25.0169C34.9887 25.1736 34.574 25.3309 34.154 25.4889C33.9354 25.5716 33.715 25.6539 33.493 25.7359C33.219 25.8359 32.941 25.9359 32.662 26.0409C32.362 26.1519 32.056 26.2619 31.749 26.3729L31.449 26.4779C31.049 26.6209 30.649 26.7639 30.235 26.9069C29.8066 27.0563 29.4449 27.3526 29.214 27.7432C28.9832 28.1338 28.8982 28.5936 28.9741 29.0409C29.0499 29.4883 29.2817 29.8943 29.6284 30.187C29.9751 30.4797 30.4143 30.6402 30.868 30.6399C31.0819 30.6412 31.2944 30.6053 31.496 30.5339C31.618 30.4919 31.735 30.4479 31.856 30.4049C32.6607 30.1223 33.4534 29.8376 34.234 29.5509L34.753 29.3579C35.557 29.0606 36.3474 28.7606 37.124 28.4579L37.366 28.3639C42.3354 26.4699 47.1766 24.2552 51.859 21.7339L51.882 21.7209C54.4767 20.3237 56.9702 18.7462 59.344 16.9999C59.7714 16.6786 60.1824 16.3579 60.577 16.0379L60.632 15.9999C61.0134 15.6886 61.38 15.3779 61.732 15.0679C61.785 15.0209 61.832 14.9749 61.886 14.9289C62.1654 14.6776 62.432 14.4269 62.686 14.1769C62.762 14.1039 62.838 14.0319 62.911 13.9589C63.192 13.6789 63.462 13.4009 63.711 13.1229C63.783 13.0439 63.849 12.9649 63.918 12.8869C64.1014 12.6803 64.277 12.4739 64.445 12.2679C64.53 12.1679 64.613 12.0609 64.694 11.9579C64.894 11.6989 65.094 11.4399 65.267 11.1819C65.324 11.0989 65.373 11.0169 65.428 10.9349C65.5614 10.7349 65.686 10.5349 65.802 10.3349C65.8614 10.2329 65.919 10.1313 65.975 10.0299C66.108 9.78695 66.231 9.54395 66.34 9.30295C66.352 9.27795 66.367 9.25195 66.379 9.22595C66.5947 8.74214 66.767 8.24018 66.894 7.72595C67.0124 7.24476 67.0827 6.75302 67.104 6.25795V6.24095C67.104 6.14095 67.104 6.04095 67.104 5.94095"
            fill="white" />
        <path
            d="M57.645 9.87899C57.1656 9.28398 56.5585 8.80432 55.8688 8.47545C55.179 8.14658 54.4242 7.97692 53.66 7.97899L40.625 8.07199L37.025 8.09699L33.747 8.12099L24.497 8.18999L16.086 8.24599C15.5272 7.08515 14.6525 6.10533 13.5623 5.41888C12.472 4.73244 11.2104 4.36718 9.92203 4.36499H1.92203C1.41334 4.36499 0.925492 4.56706 0.565798 4.92676C0.206103 5.28645 0.00402832 5.77431 0.00402832 6.28299C0.00402832 6.79168 0.206103 7.27953 0.565798 7.63922C0.925492 7.99892 1.41334 8.20099 1.92203 8.20099H9.92203C10.5369 8.20187 11.1366 8.39211 11.6396 8.74584C12.1425 9.09957 12.5243 9.59962 12.733 10.178L13.871 13.33L13.971 13.598L15.211 17.041L15.324 17.356L16.575 20.83C17.703 20.63 18.966 20.356 20.358 20.001L17.996 13.453L17.5 12.08L24.83 12.03C24.8924 12.0311 24.9548 12.0291 25.017 12.024L53.671 11.824C53.8608 11.8219 54.0486 11.8633 54.2199 11.9451C54.3912 12.027 54.5414 12.147 54.659 12.296C54.7799 12.442 54.8662 12.6135 54.9114 12.7976C54.9566 12.9817 54.9596 13.1736 54.92 13.359L54.784 14.011C56.0525 13.1499 57.2662 12.2108 58.418 11.199C58.2283 10.7219 57.967 10.2764 57.643 9.87799"
            fill="white" />
        <path
            d="M52.112 26.665C51.9381 27.5029 51.4989 28.2625 50.8595 28.8313C50.2201 29.4001 49.4145 29.7478 48.562 29.823L25.124 33.231L22.509 25.986C21.153 26.345 19.903 26.639 18.749 26.871L22.034 35.978L22.04 36.003C22.046 36.015 22.053 36.034 22.058 36.046C22.0888 36.1276 22.1262 36.2066 22.17 36.282V36.288C22.2135 36.3647 22.2634 36.4376 22.319 36.506C22.3293 36.5292 22.3439 36.5502 22.362 36.568C22.4112 36.634 22.4672 36.6946 22.529 36.749C22.592 36.805 22.66 36.861 22.729 36.91C22.9018 37.0325 23.0928 37.127 23.295 37.19C23.3806 37.2146 23.4678 37.2333 23.556 37.246C23.6503 37.2639 23.7461 37.2723 23.842 37.271H23.848C23.9354 37.2709 24.0226 37.2646 24.109 37.252C24.134 37.252 24.158 37.246 24.184 37.246L48.965 33.641C50.6255 33.483 52.1917 32.7969 53.4335 31.6834C54.6754 30.5698 55.5276 29.0875 55.865 27.454L57.473 19.834C56.095 20.742 54.597 21.6467 52.979 22.548L52.112 26.665Z"
            fill="white" />
    </g>
</svg>