<svg width="174" height="42" viewBox="0 0 174 42" fill="none" xmlns="http://www.w3.org/2000/svg">
    <mask id="mask0_7_4287" style="mask-type:luminance" maskUnits="userSpaceOnUse" x="0" y="0" width="174" height="42">
    <path d="M173.713 0H0V42H173.713V0Z" fill="white"/>
    </mask>
    <g mask="url(#mask0_7_4287)">
    <path d="M72.5638 15.868C70.9703 15.829 69.3899 16.1648 67.9499 16.8485C66.51 17.5322 65.2508 18.5445 64.2738 19.804C63.3609 21.0266 62.7972 22.4741 62.6428 23.992C62.4933 25.5818 62.7857 27.1819 63.4878 28.616C64.134 30.0674 65.1731 31.3092 66.4878 32.201C67.7983 33.0675 69.3254 33.549 70.8958 33.591C74.0892 33.5982 77.1554 32.3397 79.4228 30.091C80.2612 29.2145 80.8807 28.1524 81.2308 26.991L77.6408 25.516C77.3742 26.227 76.9706 26.8786 76.4528 27.434C75.8828 28.0189 75.2059 28.489 74.4588 28.819C73.6406 29.2251 72.7393 29.436 71.8258 29.435C71.0155 29.4262 70.2267 29.1728 69.5628 28.708C69.195 28.4487 68.869 28.1347 68.5958 27.777L80.2758 22.326C80.2058 22.126 80.1288 21.911 80.0458 21.682C79.9628 21.453 79.8808 21.253 79.7998 21.082C79.1409 19.5613 78.0816 18.248 76.7348 17.282C75.5041 16.428 74.0573 15.9386 72.5608 15.87M67.8408 21.639C68.2991 21.0066 68.9172 20.5072 69.6318 20.192C70.3275 19.8481 71.1031 19.6982 71.8768 19.758C72.6012 19.8227 73.2935 20.0868 73.8768 20.521C74.2874 20.831 74.6398 21.2112 74.9178 21.644L67.3238 25.185C67.1748 24.6996 67.1102 24.1923 67.1328 23.685C67.1694 22.9499 67.4151 22.2395 67.8408 21.639Z" fill="#BB1F26"/>
    <path d="M104.9 11.1589H99.1928L89.3678 21.5119V11.1589H84.2678V33.3469H89.3678V27.7469L92.3418 24.6469L99.4418 33.3469H105.434L95.7078 21.0469L104.9 11.1589Z" fill="#343434"/>
    <path d="M119.023 17.1011C117.595 16.3927 116.021 16.0294 114.427 16.0405C112.833 16.0516 111.265 16.4368 109.847 17.1651C108.502 17.8869 107.379 18.9605 106.598 20.2711C105.79 21.6488 105.378 23.2231 105.409 24.8201C105.381 26.4087 105.798 27.9734 106.614 29.3371C107.435 30.6762 108.615 31.7581 110.021 32.4601C112.913 33.8157 116.224 33.9696 119.229 32.8881C120.359 32.4488 121.369 31.748 122.177 30.8431L119.547 27.9901C119.005 28.5214 118.364 28.9413 117.66 29.2261C116.896 29.5148 116.083 29.6547 115.267 29.6381C114.354 29.6601 113.448 29.4704 112.621 29.0841C111.89 28.7328 111.282 28.1693 110.876 27.4671C110.653 27.0764 110.49 26.6543 110.394 26.2151H123.286C123.306 26.0041 123.328 25.7771 123.349 25.5341C123.37 25.2911 123.382 25.0751 123.382 24.8841C123.428 23.2273 123.022 21.5892 122.209 20.1451C121.455 18.851 120.35 17.7952 119.023 17.1011ZM112.304 20.3361C112.987 19.9564 113.758 19.7648 114.539 19.7811C115.315 19.7638 116.081 19.9555 116.757 20.3361C117.386 20.7001 117.902 21.2319 118.247 21.8721C118.488 22.3266 118.647 22.8202 118.717 23.3301H110.333C110.404 22.8268 110.56 22.3394 110.796 21.8891C111.14 21.239 111.662 20.7003 112.301 20.3361" fill="#343434"/>
    <path d="M139.101 18.0861C138.715 17.6542 138.267 17.2833 137.77 16.9861C136.622 16.3338 135.318 16.0051 133.998 16.0351C132.481 16.0129 130.985 16.3839 129.655 17.1121C128.374 17.8242 127.315 18.8776 126.596 20.1551C125.818 21.5821 125.43 23.1893 125.472 24.8141C125.432 26.4289 125.82 28.0255 126.596 29.4421C127.316 30.7227 128.374 31.7806 129.655 32.5001C130.981 33.2395 132.479 33.6168 133.998 33.5941C135.344 33.633 136.675 33.3046 137.849 32.6441C138.411 32.3054 138.91 31.8708 139.323 31.3601V33.3411H144.046V9.82812H139.101V18.0861ZM138.61 27.3401C138.247 28.0181 137.704 28.5828 137.041 28.9721C136.376 29.3545 135.62 29.5513 134.853 29.5421C134.076 29.5541 133.31 29.3573 132.635 28.9721C131.971 28.5836 131.428 28.0187 131.066 27.3401C130.658 26.5637 130.457 25.6957 130.48 24.8191C130.453 23.9377 130.655 23.0643 131.066 22.2841C131.431 21.6122 131.974 21.0533 132.635 20.6681C133.309 20.2819 134.076 20.0846 134.853 20.0971C135.62 20.0874 136.376 20.2847 137.041 20.6681C137.701 21.0539 138.244 21.6127 138.61 22.2841C139.02 23.0646 139.222 23.9378 139.196 24.8191C139.218 25.6956 139.017 26.5634 138.61 27.3401Z" fill="#343434"/>
    <path d="M161.541 17.8779C159.81 16.5573 157.661 15.9047 155.488 16.0399C154.138 16.039 152.795 16.2203 151.494 16.5789C150.294 16.8869 149.157 17.4012 148.134 18.0989L149.905 21.5549C150.574 21.0386 151.331 20.6464 152.139 20.3969C153.004 20.1139 153.908 19.9694 154.818 19.9689C155.882 19.8837 156.94 20.2002 157.782 20.8559C158.111 21.1743 158.368 21.5599 158.535 21.9865C158.702 22.413 158.776 22.8706 158.75 23.3279H154.819C153.386 23.2793 151.956 23.4998 150.604 23.9779C149.65 24.3155 148.824 24.9414 148.242 25.7689C147.752 26.5657 147.494 27.4833 147.497 28.4187C147.499 29.3541 147.763 30.2702 148.258 31.0639C148.799 31.8742 149.556 32.5165 150.444 32.9179C151.52 33.3976 152.691 33.6303 153.869 33.5989C155.149 33.6524 156.42 33.3561 157.545 32.7419C158.176 32.3647 158.7 31.8325 159.067 31.1959V33.3449H163.694V23.6159C163.694 21.0159 162.976 19.1033 161.539 17.8779M157.326 29.6849C156.655 30.0808 155.887 30.2839 155.108 30.2719C154.384 30.3131 153.667 30.1187 153.063 29.7179C152.824 29.5476 152.631 29.3209 152.501 29.058C152.371 28.7951 152.308 28.5041 152.318 28.2109C152.313 27.94 152.369 27.6714 152.481 27.4248C152.594 27.1782 152.76 26.96 152.968 26.7859C153.678 26.3293 154.522 26.1282 155.361 26.2159H158.753V27.9589C158.489 28.6809 157.985 29.2894 157.326 29.6849Z" fill="#343434"/>
    <path d="M170.638 13.9151C171.045 13.9347 171.453 13.8734 171.836 13.7347C172.22 13.596 172.572 13.3827 172.873 13.1071C173.148 12.844 173.365 12.526 173.509 12.1737C173.654 11.8214 173.723 11.4427 173.712 11.0621C173.722 10.6988 173.65 10.3378 173.502 10.0058C173.355 9.67385 173.134 9.37936 172.857 9.14408C172.235 8.62997 171.444 8.36487 170.638 8.40008C169.823 8.36605 169.028 8.65006 168.419 9.19208C168.149 9.44351 167.934 9.74776 167.787 10.0859C167.64 10.424 167.564 10.7888 167.564 11.1576C167.564 11.5263 167.64 11.8911 167.787 12.2293C167.934 12.5674 168.149 12.8717 168.419 13.1231C169.027 13.6655 169.823 13.9495 170.638 13.9151Z" fill="#343434"/>
    <path d="M173.111 16.293H168.166V33.347H173.111V16.293Z" fill="#343434"/>
    <path d="M31.5408 39.411C31.5408 39.9233 31.389 40.424 31.1044 40.8499C30.8199 41.2758 30.4154 41.6077 29.9422 41.8038C29.469 41.9999 28.9483 42.0512 28.4459 41.9514C27.9435 41.8515 27.482 41.6049 27.1198 41.2428C26.7575 40.8807 26.5108 40.4193 26.4107 39.9169C26.3107 39.4146 26.3618 38.8939 26.5577 38.4206C26.7536 37.9473 27.0854 37.5427 27.5112 37.258C27.937 36.9733 28.4376 36.8212 28.9498 36.821C29.29 36.8209 29.6269 36.8878 29.9413 37.0179C30.2556 37.148 30.5413 37.3388 30.7819 37.5793C31.0225 37.8198 31.2134 38.1054 31.3436 38.4197C31.4738 38.734 31.5408 39.0708 31.5408 39.411Z" fill="#BB1F26"/>
    <path d="M46.784 39.411C46.784 39.9233 46.6321 40.424 46.3475 40.85C46.0629 41.2759 45.6584 41.6079 45.1852 41.8039C44.7119 41.9999 44.1911 42.0512 43.6887 41.9513C43.1863 41.8513 42.7248 41.6047 42.3626 41.2425C42.0004 40.8802 41.7537 40.4187 41.6538 39.9163C41.5538 39.4139 41.6051 38.8932 41.8012 38.4199C41.9972 37.9466 42.3292 37.5421 42.7551 37.2575C43.181 36.9729 43.6818 36.821 44.194 36.821C44.5342 36.8209 44.871 36.8878 45.1853 37.0179C45.4996 37.148 45.7852 37.3388 46.0257 37.5793C46.2662 37.8199 46.457 38.1054 46.5871 38.4197C46.7172 38.734 46.7841 39.0709 46.784 39.411Z" fill="#BB1F26"/>
    <path d="M42.4949 13.436C42.4055 13.218 42.274 13.0198 42.1079 12.8526C41.9419 12.6854 41.7445 12.5526 41.5271 12.4618C41.3097 12.371 41.0765 12.3239 40.8409 12.3232C40.6052 12.3226 40.3718 12.3684 40.1539 12.458C39.0465 12.9127 37.9799 13.344 36.9539 13.752L36.8629 13.787C35.3295 14.3957 33.8829 14.956 32.5229 15.468C27.4649 17.368 23.5489 18.636 20.5229 19.468C20.1309 19.576 19.7589 19.668 19.3969 19.768C19.0709 19.852 18.7565 19.9304 18.4539 20.003L18.3539 20.028C18.0899 20.091 17.8359 20.15 17.5889 20.204L17.4329 20.239C17.2049 20.289 16.9869 20.339 16.7739 20.379L16.6099 20.413C16.3585 20.4644 16.1169 20.5107 15.8849 20.552C15.4629 20.629 15.0729 20.692 14.7119 20.744V20.736C11.3869 21.216 10.5569 20.707 10.4569 20.628C9.95688 19.412 11.4569 17.89 13.2199 16.593L13.1139 16.299L11.9559 13.085C9.11588 14.994 5.51888 18.218 7.17788 22.073C7.25465 22.2465 7.34493 22.4137 7.44788 22.573C7.46188 22.596 7.47188 22.623 7.48688 22.645C7.59202 22.801 7.7101 22.9479 7.83988 23.084C7.85788 23.102 7.86988 23.126 7.88888 23.144C7.97546 23.226 8.06625 23.3035 8.16088 23.376C9.37533 24.2346 10.8522 24.6404 12.3349 24.523C12.4429 24.523 12.5589 24.515 12.6709 24.514C12.8279 24.514 12.9819 24.509 13.1459 24.501C14.4767 24.4175 15.7999 24.2404 17.1059 23.971C18.3219 23.732 19.6499 23.42 21.1059 23.025C28.0416 20.9994 34.8558 18.5784 41.5149 15.774C41.7326 15.6847 41.9306 15.5534 42.0976 15.3876C42.2645 15.2217 42.3971 15.0246 42.4879 14.8075C42.5786 14.5904 42.6257 14.3575 42.6264 14.1222C42.627 13.8868 42.5813 13.6537 42.4919 13.436" fill="#BB1F26"/>
    <path d="M62.6329 5.54102C62.6344 4.74611 62.4767 3.95895 62.1689 3.22602L62.1089 3.10002C61.0729 1.10002 58.7259 0.0760238 54.8989 2.37525e-05H54.8329H54.7989C54.2669 -0.00797625 53.6989 0.00902375 53.1079 0.0380238C50.7873 0.176208 48.4788 0.473574 46.1989 0.928024C39.4339 2.32295 32.7705 4.1718 26.2539 6.46202L34.5459 6.40002L38.7069 6.37002C41.6789 5.56102 44.4319 4.91002 46.8629 4.45102C56.9189 2.55102 58.6529 4.32802 58.9039 4.70602C59.0328 5.10826 59.0796 5.53226 59.0416 5.95292C59.0037 6.37359 58.8817 6.78236 58.6829 7.15502C58.6249 7.28602 58.5599 7.42002 58.4879 7.55502C58.4469 7.63402 58.3969 7.71502 58.3509 7.79502C58.3169 7.85402 58.2869 7.91202 58.2509 7.97102C58.2149 8.03002 58.1589 8.11402 58.1119 8.18402C58.0649 8.25402 58.0179 8.33302 57.9659 8.40802C57.9409 8.44502 57.9109 8.48302 57.8849 8.51902C57.2834 9.34396 56.6039 10.1091 55.8559 10.804C53.8812 12.608 51.7254 14.2031 49.4229 15.564C45.2259 18.064 40.8406 20.2336 36.3069 22.053H36.2959C35.3279 22.453 34.3246 22.853 33.2859 23.253L33.0369 23.348C32.6549 23.494 32.2679 23.6407 31.8759 23.788C31.6719 23.8654 31.4662 23.942 31.2589 24.018C31.0039 24.113 30.7439 24.208 30.4839 24.303C30.2009 24.403 29.9189 24.51 29.6309 24.613L29.3529 24.713C28.9779 24.847 28.6019 24.98 28.2199 25.113C27.8201 25.2525 27.4826 25.529 27.2672 25.8936C27.0519 26.2582 26.9726 26.6873 27.0434 27.1047C27.1142 27.5222 27.3306 27.9011 27.6541 28.1743C27.9777 28.4474 28.3875 28.5972 28.8109 28.597C29.0106 28.5978 29.2088 28.564 29.3969 28.497C29.5109 28.458 29.6199 28.417 29.7329 28.377C30.4836 28.1104 31.2232 27.8437 31.9519 27.577L32.4369 27.397C33.1869 27.1197 33.9246 26.8407 34.6499 26.56L34.8759 26.473C39.5123 24.7099 44.0295 22.6479 48.3989 20.3L48.4209 20.288C50.8427 18.9815 53.1697 17.5065 55.3849 15.874C55.7849 15.574 56.1686 15.274 56.5359 14.974L56.5849 14.935C56.9409 14.6444 57.2822 14.3544 57.6089 14.065C57.6589 14.021 57.7089 13.978 57.7529 13.935C58.0136 13.7004 58.2639 13.467 58.5039 13.235C58.5749 13.167 58.6459 13.1 58.7139 13.035C58.9759 12.774 59.2279 12.514 59.4649 12.255C59.5319 12.181 59.5939 12.108 59.6579 12.035C59.8292 11.8417 59.9932 11.649 60.1499 11.457C60.2289 11.357 60.3069 11.264 60.3829 11.167C60.5719 10.925 60.7529 10.683 60.9179 10.443C60.9709 10.366 61.0179 10.289 61.0679 10.212C61.1912 10.024 61.3076 9.83669 61.4169 9.65002C61.4722 9.55536 61.5259 9.46036 61.5779 9.36502C61.7019 9.13802 61.8169 8.91102 61.9189 8.68602C61.9299 8.66202 61.9439 8.63802 61.9549 8.61502C62.1559 8.16345 62.3166 7.69495 62.4349 7.21502C62.5467 6.76609 62.6137 6.30718 62.6349 5.84502V5.82502C62.6349 5.73002 62.6349 5.63602 62.6349 5.54202" fill="#BB1F26"/>
    <path d="M53.7999 9.22397C53.3522 8.66899 52.7854 8.22177 52.1415 7.91539C51.4976 7.60902 50.793 7.45132 50.0799 7.45397L37.9139 7.54098L34.5519 7.56497L31.4999 7.58397L22.8659 7.64897L15.0149 7.70097C14.4937 6.61672 13.6774 5.70133 12.6596 5.05981C11.6419 4.41829 10.464 4.07662 9.26093 4.07397H1.79293C1.55786 4.07397 1.3251 4.12027 1.10793 4.21023C0.890754 4.30019 0.693425 4.43204 0.527209 4.59825C0.360992 4.76447 0.229141 4.9618 0.139185 5.17897C0.0492294 5.39614 0.00292969 5.62891 0.00292969 5.86397C0.00292969 6.09904 0.0492294 6.3318 0.139185 6.54898C0.229141 6.76615 0.360992 6.96348 0.527209 7.1297C0.693425 7.29591 0.890754 7.42776 1.10793 7.51772C1.3251 7.60767 1.55786 7.65398 1.79293 7.65398H9.26093C9.83468 7.65498 10.3942 7.83259 10.8635 8.16268C11.3328 8.49278 11.6891 8.95934 11.8839 9.49897L12.9459 12.441L13.0359 12.691L14.1939 15.905L14.2999 16.199L15.4679 19.441C16.5209 19.257 17.6999 18.998 18.9989 18.667L16.7989 12.556L16.3399 11.273L23.1759 11.224C23.2339 11.2269 23.292 11.2269 23.3499 11.224L50.0939 11.038C50.2711 11.0361 50.4463 11.0749 50.6062 11.1514C50.766 11.2278 50.9062 11.3399 51.0159 11.479C51.1288 11.6152 51.2093 11.7752 51.2516 11.947C51.2938 12.1188 51.2967 12.2979 51.2599 12.471L51.1329 13.079C52.3169 12.2755 53.4498 11.3991 54.5249 10.455C54.3472 10.0102 54.1027 9.59513 53.7999 9.22397Z" fill="#343434"/>
    <path d="M48.638 24.8879C48.4759 25.6701 48.0661 26.3792 47.4693 26.9101C46.8726 27.4411 46.1207 27.7658 45.325 27.8359L23.449 31.0159L21.009 24.2549C19.743 24.5899 18.576 24.8649 17.499 25.0809L20.565 33.5809L20.571 33.6049C20.577 33.6159 20.583 33.6339 20.588 33.6449C20.6153 33.7209 20.6487 33.7945 20.688 33.8649V33.8739C20.7288 33.9443 20.7753 34.0112 20.827 34.0739C20.8366 34.0956 20.8502 34.1153 20.867 34.1319C20.913 34.1936 20.9653 34.2502 21.023 34.3009C21.082 34.3529 21.146 34.4009 21.209 34.4509C21.3702 34.5652 21.5484 34.6532 21.737 34.7119C21.8171 34.7348 21.8986 34.7522 21.981 34.7639C22.069 34.7809 22.1584 34.789 22.248 34.7879H22.254C22.3357 34.7878 22.4172 34.7818 22.498 34.7699C22.522 34.7699 22.544 34.7639 22.568 34.7639L45.697 31.3989C47.2467 31.2515 48.7084 30.6112 49.8675 29.572C51.0266 28.5328 51.822 27.1494 52.137 25.6249L53.637 18.5129C52.351 19.3603 50.953 20.2046 49.443 21.0459L48.638 24.8879Z" fill="#343434"/>
    </g>
</svg>
