<svg width="100%" height="100%" viewBox="0 0 51 41" fill="none" xmlns="http://www.w3.org/2000/svg">
    <path
        d="M45.2891 40.37H5.36413C4.0288 40.4373 2.72108 39.9734 1.72668 39.0797C0.732291 38.1859 0.132059 36.9349 0.0571289 35.6V13.114H50.5951V35.6C50.5202 36.9347 49.9201 38.1856 48.9259 39.0793C47.9318 39.973 46.6243 40.437 45.2891 40.37ZM3.42613 16.142V35.6C3.45352 36.0872 3.67261 36.5438 4.03554 36.87C4.39848 37.1962 4.87576 37.3655 5.36313 37.341H45.2891C45.7765 37.3655 46.2538 37.1962 46.6167 36.87C46.9797 36.5438 47.1987 36.0872 47.2261 35.6V16.142H3.42613Z"
        fill="#008986" />
    <path
        d="M50.5951 16.14H0.0571289V5.76996C0.132059 4.43503 0.732291 3.18402 1.72668 2.29025C2.72108 1.39647 4.0288 0.932596 5.36413 0.999964H45.2891C46.6245 0.932596 47.9322 1.39647 48.9266 2.29025C49.921 3.18402 50.5212 4.43503 50.5961 5.76996L50.5951 16.14ZM3.42613 13.114H47.2261V5.76996C47.1987 5.28274 46.9797 4.82616 46.6167 4.49995C46.2538 4.17374 45.7765 4.00442 45.2891 4.02896H5.36413C4.87659 4.00414 4.39905 4.17334 4.0359 4.49958C3.67274 4.82582 3.45351 5.28256 3.42613 5.76996V13.114Z"
        fill="#008986" />
    <path d="M21.5471 14.1339L26.3392 1.83263L29.6217 2.80559L24.8334 15.1082L21.5471 14.1339Z" fill="#008986" />
    <path d="M34.4592 14.131L39.2535 1.82711L42.5372 2.8021L37.7462 15.106L34.4592 14.131Z" fill="#008986" />
    <path d="M8.10913 14.14L12.9012 1.83868L16.1837 2.81163L11.3954 15.1142L8.10913 14.14Z" fill="#008986" />
    <path
        d="M1.79321 14.6279V35.5999C1.84311 36.5101 2.25125 37.3634 2.92845 37.9736C3.60565 38.5837 4.49682 38.9009 5.40721 38.8559H45.2462C46.1566 38.9009 47.0478 38.5837 47.725 37.9736C48.4022 37.3634 48.8103 36.5101 48.8602 35.5999V14.6279H1.79321ZM31.6802 26.7419L22.5362 32.1019C22.5081 32.1184 22.4763 32.1278 22.4437 32.1292C22.4111 32.1305 22.3787 32.1239 22.3492 32.1099C22.3208 32.0976 22.2963 32.0777 22.2787 32.0522C22.261 32.0268 22.2508 31.9969 22.2492 31.9659V21.3679C22.2508 21.337 22.261 21.3071 22.2787 21.2817C22.2963 21.2562 22.3208 21.2362 22.3492 21.2239C22.3787 21.2099 22.4111 21.2033 22.4437 21.2047C22.4763 21.2061 22.5081 21.2154 22.5362 21.2319L31.6802 26.5469C31.6982 26.5616 31.7127 26.58 31.7226 26.6009C31.7326 26.6219 31.7377 26.6448 31.7377 26.6679C31.7377 26.6911 31.7326 26.714 31.7226 26.7349C31.7127 26.7559 31.6982 26.7743 31.6802 26.7889V26.7419Z"
        fill="#008986" />
</svg>