<svg width="100%" height="100%" viewBox="0 0 56 48" fill="none" xmlns="http://www.w3.org/2000/svg">
    <path
        d="M50.0619 24.345H5.7959C3.31062 24.345 1.2959 26.3597 1.2959 28.845V42.039C1.2959 44.5243 3.31062 46.539 5.7959 46.539H50.0619C52.5472 46.539 54.5619 44.5243 54.5619 42.039V28.845C54.5619 26.3597 52.5472 24.345 50.0619 24.345Z"
        fill="white" stroke="#008986" stroke-width="1.15" stroke-linecap="round" stroke-linejoin="round" />
    <path d="M11.8269 30.603V38.651M15.8159 34.628H7.83789" stroke="#008986" stroke-width="1.15" stroke-linecap="round"
        stroke-linejoin="round" />
    <path
        d="M43.3729 32.643C44.1394 32.643 44.7609 32.0166 44.7609 31.244C44.7609 30.4713 44.1394 29.845 43.3729 29.845C42.6063 29.845 41.9849 30.4713 41.9849 31.244C41.9849 32.0166 42.6063 32.643 43.3729 32.643Z"
        fill="white" stroke="#008986" stroke-width="1.15" stroke-linecap="round" stroke-linejoin="round" />
    <path
        d="M46.8287 36.13C47.5952 36.13 48.2167 35.5036 48.2167 34.731C48.2167 33.9583 47.5952 33.332 46.8287 33.332C46.0621 33.332 45.4407 33.9583 45.4407 34.731C45.4407 35.5036 46.0621 36.13 46.8287 36.13Z"
        fill="white" stroke="#008986" stroke-width="1.15" stroke-linecap="round" stroke-linejoin="round" />
    <path
        d="M43.3729 39.617C44.1394 39.617 44.7609 38.9906 44.7609 38.218C44.7609 37.4453 44.1394 36.819 43.3729 36.819C42.6063 36.819 41.9849 37.4453 41.9849 38.218C41.9849 38.9906 42.6063 39.617 43.3729 39.617Z"
        fill="white" stroke="#008986" stroke-width="1.15" stroke-linecap="round" stroke-linejoin="round" />
    <path
        d="M39.9178 36.129C40.6844 36.129 41.3058 35.5026 41.3058 34.73C41.3058 33.9573 40.6844 33.331 39.9178 33.331C39.1512 33.331 38.5298 33.9573 38.5298 34.73C38.5298 35.5026 39.1512 36.129 39.9178 36.129Z"
        fill="white" stroke="#008986" stroke-width="1.15" stroke-linecap="round" stroke-linejoin="round" />
    <path d="M23.761 31.317H25.786M29.836 31.317H31.861" stroke="#008986" stroke-width="1.15" stroke-linecap="round"
        stroke-linejoin="round" />
    <path
        d="M22.469 43.764C23.7459 43.764 24.781 42.522 24.781 40.99C24.781 39.458 23.7459 38.216 22.469 38.216C21.1921 38.216 20.157 39.458 20.157 40.99C20.157 42.522 21.1921 43.764 22.469 43.764Z"
        fill="#008986" stroke="white" stroke-width="1.15" stroke-linecap="round" stroke-linejoin="round" />
    <path
        d="M33.3889 43.764C34.6658 43.764 35.7009 42.522 35.7009 40.99C35.7009 39.458 34.6658 38.216 33.3889 38.216C32.112 38.216 31.0769 39.458 31.0769 40.99C31.0769 42.522 32.112 43.764 33.3889 43.764Z"
        fill="#008986" stroke="white" stroke-width="1.15" stroke-linecap="round" stroke-linejoin="round" />
    <path
        d="M50.0619 1H5.7959C3.31062 1 1.2959 3.01472 1.2959 5.5V21.694C1.2959 24.1793 3.31062 26.194 5.7959 26.194H50.0619C52.5472 26.194 54.5619 24.1793 54.5619 21.694V5.5C54.5619 3.01472 52.5472 1 50.0619 1Z"
        fill="#008986" stroke="#008986" stroke-linecap="round" stroke-linejoin="round" />
    <path d="M8.56079 5.05701H47.4098V22.817H8.56079V5.05701Z" fill="white" />
</svg>