<svg width="100%" height="100%" viewBox="0 0 43 50" fill="none" xmlns="http://www.w3.org/2000/svg">
    <path
        d="M42.589 44.588L39.336 16.545C39.177 13.977 37.346 11.988 35.136 11.988H31.478V10.382C31.4971 7.67148 30.483 5.05546 28.642 3.066C27.7625 2.10303 26.6926 1.33326 25.5 0.805481C24.3074 0.277699 23.0182 0.00341037 21.714 0C16.331 0 11.951 4.658 11.951 10.382V11.989H8.28901C6.08301 11.989 4.25201 13.978 4.08901 16.546L0.840013 44.588C0.664013 47.433 2.59301 49.854 5.04001 49.854H38.392C40.836 49.854 42.765 47.433 42.589 44.588ZM13.989 10.382C13.989 5.782 17.455 2.035 21.717 2.035C22.742 2.03939 23.7549 2.25668 24.6916 2.67309C25.6282 3.0895 26.4681 3.69595 27.158 4.454C28.6465 6.06731 29.4646 8.187 29.446 10.382V11.989H13.986L13.989 10.382ZM12.972 19.012C12.5836 19.012 12.2038 18.8968 11.8809 18.681C11.5579 18.4652 11.3062 18.1585 11.1575 17.7996C11.0089 17.4407 10.97 17.0458 11.0458 16.6648C11.1215 16.2839 11.3086 15.9339 11.5833 15.6592C11.8579 15.3846 12.2079 15.1975 12.5889 15.1217C12.9698 15.046 13.3647 15.0849 13.7236 15.2335C14.0825 15.3822 14.3892 15.6339 14.605 15.9569C14.8208 16.2798 14.936 16.6596 14.936 17.048C14.936 17.3063 14.8851 17.562 14.7861 17.8005C14.6872 18.0391 14.5422 18.2557 14.3594 18.4382C14.1766 18.6206 13.9596 18.7652 13.7208 18.8636C13.4821 18.9621 13.2263 19.0125 12.968 19.012H12.972ZM30.465 19.012C29.9441 19.0127 29.4443 18.8064 29.0755 18.4385C28.7067 18.0707 28.4992 17.5714 28.4985 17.0505C28.4979 16.5296 28.7041 16.0298 29.072 15.661C29.4398 15.2922 29.9391 15.0847 30.46 15.084H30.47C30.9909 15.0847 31.4902 15.2922 31.858 15.661C32.2259 16.0298 32.4322 16.5296 32.4315 17.0505C32.4308 17.5714 32.2233 18.0707 31.8545 18.4385C31.4857 18.8064 30.9859 19.0127 30.465 19.012Z"
        fill="#008986" />
</svg>