<svg width="100%" height="100%" viewBox="0 0 29 50" fill="none" xmlns="http://www.w3.org/2000/svg">
    <path
        d="M25.795 49.837C26.6211 49.837 27.4134 49.5088 27.9976 48.9246C28.5818 48.3405 28.91 47.5482 28.91 46.722V3.115C28.91 2.28885 28.5818 1.49654 27.9976 0.912365C27.4134 0.328189 26.6211 2.56845e-06 25.795 2.56845e-06H3.99498C3.58557 -0.000523151 3.18008 0.0796608 2.80169 0.235969C2.4233 0.392277 2.07943 0.621643 1.78975 0.91095C1.50007 1.20026 1.27027 1.54383 1.11347 1.92202C0.95668 2.30021 0.875976 2.7056 0.875977 3.115V46.722C0.875977 47.5482 1.20416 48.3405 1.78834 48.9246C2.37251 49.5088 3.16483 49.837 3.99098 49.837H25.795ZM13.335 44.972C13.3248 44.6237 13.4189 44.2802 13.605 43.9856C13.7912 43.691 14.061 43.4586 14.38 43.3183C14.699 43.1779 15.0526 43.136 15.3956 43.1977C15.7386 43.2595 16.0553 43.4222 16.3053 43.665C16.5553 43.9079 16.7271 44.2198 16.7988 44.5608C16.8705 44.9019 16.8388 45.2565 16.7077 45.5795C16.5767 45.9024 16.3522 46.1788 16.0631 46.3735C15.7741 46.5681 15.4335 46.6721 15.085 46.672C14.6295 46.6719 14.1919 46.4944 13.8652 46.177C13.5384 45.8596 13.3482 45.4273 13.335 44.972ZM21.122 3.115C21.5351 3.115 21.9312 3.2791 22.2233 3.57118C22.5154 3.86327 22.6795 4.25943 22.6795 4.6725C22.6795 5.08558 22.5154 5.48173 22.2233 5.77382C21.9312 6.06591 21.5351 6.23 21.122 6.23H18.008C17.5949 6.23 17.1987 6.06591 16.9067 5.77382C16.6146 5.48173 16.4505 5.08558 16.4505 4.6725C16.4505 4.25943 16.6146 3.86327 16.9067 3.57118C17.1987 3.2791 17.5949 3.115 18.008 3.115H21.122ZM13.335 4.672C13.335 4.97986 13.2437 5.28081 13.0727 5.53682C12.9017 5.79282 12.6587 5.99239 12.3743 6.11029C12.0899 6.22819 11.7769 6.25914 11.475 6.19923C11.173 6.13931 10.8955 5.99122 10.6777 5.77367C10.4599 5.55612 10.3114 5.27888 10.2511 4.97698C10.1908 4.67509 10.2214 4.36209 10.3389 4.07755C10.4565 3.79301 10.6557 3.5497 10.9115 3.37838C11.1673 3.20705 11.4681 3.1154 11.776 3.115C11.9806 3.11474 12.1833 3.15482 12.3724 3.23295C12.5616 3.31108 12.7334 3.42572 12.8782 3.57033C13.023 3.71494 13.1379 3.88667 13.2163 4.0757C13.2946 4.26474 13.335 4.46737 13.335 4.672ZM3.99098 9.344H25.791V40.493H3.99098V9.344Z"
        fill="#008986" />
</svg>