<svg width="100%" height="100%" viewBox="0 0 65 50" fill="none" xmlns="http://www.w3.org/2000/svg">
    <path
        d="M2.43206 31.831L5.39606 29.461V47.071C5.39738 47.7323 5.66067 48.3662 6.12829 48.8338C6.59591 49.3014 7.22975 49.5647 7.89106 49.566H15.3751C16.0364 49.5647 16.6702 49.3014 17.1378 48.8338C17.6055 48.3662 17.8687 47.7323 17.8701 47.071V39.587H22.8591V47.071C22.8604 47.7323 23.1237 48.3662 23.5913 48.8338C24.0589 49.3014 24.6928 49.5647 25.3541 49.566H32.8381C33.4994 49.5647 34.1332 49.3014 34.6008 48.8338C35.0685 48.3662 35.3317 47.7323 35.3331 47.071V29.461L38.2971 31.831C38.5566 32.029 38.8833 32.1176 39.2072 32.0778C39.5312 32.0379 39.8267 31.8728 40.0305 31.6178C40.2343 31.3628 40.3301 31.0381 40.2975 30.7134C40.2649 30.3886 40.1064 30.0895 39.8561 29.88L21.1451 14.912C20.9237 14.7352 20.6488 14.6389 20.3656 14.6389C20.0823 14.6389 19.8074 14.7352 19.5861 14.912L12.8801 20.276V17.135C12.8867 16.8033 12.8271 16.4735 12.7047 16.165C12.5823 15.8565 12.3997 15.5756 12.1674 15.3386C11.9351 15.1016 11.6578 14.9133 11.3519 14.7848C11.0459 14.6563 10.7174 14.5901 10.3856 14.5901C10.0537 14.5901 9.72519 14.6563 9.41924 14.7848C9.11329 14.9133 8.83605 15.1016 8.60376 15.3386C8.37146 15.5756 8.18878 15.8565 8.06641 16.165C7.94403 16.4735 7.88442 16.8033 7.89106 17.135V24.267L0.876062 29.881C0.617343 30.0875 0.451241 30.3883 0.414297 30.7172C0.377352 31.0462 0.472591 31.3763 0.679062 31.635C0.885533 31.8938 1.18632 32.0599 1.51526 32.0968C1.8442 32.1337 2.17434 32.0385 2.43306 31.832L2.43206 31.831ZM20.3641 17.484L32.8381 27.463V47.072H25.3541V37.093H15.3751V47.072H7.89106V27.466L20.3641 17.484Z"
        fill="#008986" />
    <path d="M62.403 44.3691H34.62V25.2691H25.582V3.51807H62.403V44.3691Z" fill="white" />
    <path
        d="M58.9061 7.99221e-07H29.6271C28.1337 7.99221e-07 26.7014 0.593265 25.6454 1.64928C24.5894 2.7053 23.9961 4.13757 23.9961 5.631V25.9C23.9961 26.1986 24.1147 26.485 24.3259 26.6962C24.5371 26.9074 24.8235 27.026 25.1221 27.026H33.0051V48.426C33.0052 48.6247 33.0579 48.8198 33.1578 48.9915C33.2577 49.1632 33.4013 49.3055 33.5739 49.4038C33.7466 49.5021 33.9422 49.553 34.1408 49.5512C34.3395 49.5495 34.5342 49.4953 34.7051 49.394L39.6941 46.394L43.5941 49.322C43.789 49.4681 44.026 49.5471 44.2696 49.5471C44.5132 49.5471 44.7502 49.4681 44.9451 49.322L48.7741 46.439L52.7041 49.266C52.897 49.407 53.1297 49.483 53.3686 49.483C53.6075 49.483 53.8402 49.407 54.0331 49.266L57.8391 46.406L62.8281 49.406C63.0002 49.5109 63.1972 49.5677 63.3987 49.5705C63.6002 49.5733 63.7987 49.5219 63.9736 49.4218C64.1485 49.3217 64.2933 49.1765 64.393 49.0013C64.4926 48.8262 64.5434 48.6275 64.5401 48.426V5.631C64.5401 4.89128 64.3943 4.1588 64.1112 3.47542C63.828 2.79204 63.413 2.17115 62.8898 1.64822C62.3665 1.1253 61.7454 0.710582 61.0619 0.427774C60.3784 0.144966 59.6458 -0.000393301 58.9061 7.99221e-07ZM26.2481 24.775V5.631C26.2481 4.73497 26.604 3.87563 27.2376 3.24204C27.8712 2.60845 28.7306 2.2525 29.6266 2.2525C30.5226 2.2525 31.382 2.60845 32.0156 3.24204C32.6491 3.87563 33.0051 4.73497 33.0051 5.631V24.775H26.2481ZM58.9061 40.54H38.6351V38.288H58.9061V40.54ZM58.9061 33.783H38.6351V31.531H58.9061V33.783ZM48.7711 27.027C46.7666 27.027 44.8071 26.4326 43.1404 25.3189C41.4737 24.2053 40.1747 22.6224 39.4076 20.7705C38.6405 18.9186 38.4398 16.8808 38.8308 14.9148C39.2219 12.9488 40.1872 11.1429 41.6046 9.72547C43.022 8.30807 44.8279 7.3428 46.7939 6.95174C48.7599 6.56068 50.7977 6.76139 52.6496 7.52848C54.5015 8.29558 56.0844 9.5946 57.198 11.2613C58.3117 12.928 58.9061 14.8875 58.9061 16.892C58.9061 19.58 57.8383 22.1578 55.9376 24.0585C54.0369 25.9592 51.4591 27.027 48.7711 27.027ZM48.7711 9.009C47.212 9.009 45.6879 9.47133 44.3915 10.3375C43.0952 11.2037 42.0848 12.4349 41.4882 13.8753C40.8915 15.3157 40.7354 16.9007 41.0396 18.4299C41.3437 19.959 42.0945 21.3637 43.197 22.4661C44.2994 23.5686 45.704 24.3194 47.2332 24.6235C48.7623 24.9277 50.3474 24.7716 51.7878 24.1749C53.2282 23.5783 54.4594 22.5679 55.3256 21.2716C56.1918 19.9752 56.6541 18.4511 56.6541 16.892C56.6541 15.8568 56.4502 14.8317 56.054 13.8753C55.6579 12.9189 55.0772 12.0499 54.3452 11.3179C53.6132 10.5859 52.7442 10.0052 51.7878 9.60906C50.8314 9.2129 49.8063 9.009 48.7711 9.009ZM52.1491 14.64H47.6491V15.766H51.0271C51.175 15.766 51.3214 15.7951 51.458 15.8517C51.5946 15.9083 51.7187 15.9912 51.8233 16.0958C51.9279 16.2004 52.0108 16.3245 52.0674 16.4611C52.124 16.5977 52.1531 16.7441 52.1531 16.892V20.27C52.1536 20.4185 52.1248 20.5657 52.0682 20.7031C52.0116 20.8404 51.9283 20.9652 51.8233 21.0702C51.7183 21.1752 51.5935 21.2585 51.4562 21.3151C51.3188 21.3717 51.1716 21.4005 51.0231 21.4H49.8961V22.526H47.6441V21.4H45.3961V19.144H49.8961V18.018H46.5181C46.2202 18.0169 45.9348 17.8978 45.7245 17.6868C45.5142 17.4757 45.3961 17.1899 45.3961 16.892V13.513C45.3961 13.2144 45.5147 12.928 45.7259 12.7168C45.9371 12.5056 46.2235 12.387 46.5221 12.387H47.6481V11.261H49.8961V12.387H52.1481L52.1491 14.64Z"
        fill="#008986" />
</svg>