<svg width="100%" height="100%" viewBox="0 0 59 38" fill="none" xmlns="http://www.w3.org/2000/svg">
    <path
        d="M56.0959 6.41495H29.9649C29.9649 6.41495 29.9549 4.62495 29.9649 4.02595C29.9499 3.28447 29.7334 2.56104 29.3386 1.9332C28.9439 1.30537 28.3857 0.796782 27.7239 0.461953C27.0572 0.121547 26.312 -0.0354397 25.5647 0.00708566C24.8173 0.049611 24.0947 0.290119 23.4709 0.703954C22.9479 1.07495 21.3609 2.15095 21.3609 2.15095H15.3409C15.3409 2.15095 13.7539 1.07495 13.2299 0.702953C12.6062 0.289119 11.8836 0.0486106 11.1362 0.00608525C10.3888 -0.0364401 9.64362 0.120548 8.97693 0.460954C8.31518 0.795782 7.757 1.30437 7.36223 1.9322C6.96745 2.56004 6.75095 3.28347 6.73593 4.02495C6.74593 4.62495 6.73593 6.41395 6.73593 6.41395H3.82993C3.06733 6.411 2.3345 6.7097 1.79124 7.2449C1.24798 7.7801 0.938373 8.50839 0.929932 9.27095V14.983C0.930978 15.109 0.956846 15.2337 1.00606 15.3497C1.05527 15.4658 1.12687 15.571 1.21676 15.6594C1.30664 15.7478 1.41306 15.8177 1.52994 15.8649C1.64682 15.9122 1.77186 15.936 1.89793 15.935C2.72195 15.9168 3.54129 16.0634 4.30788 16.3662C5.07446 16.669 5.77284 17.1219 6.36203 17.6983C6.95122 18.2746 7.41935 18.9629 7.73895 19.7226C8.05855 20.4823 8.22318 21.2982 8.22318 22.1225C8.22318 22.9467 8.05855 23.7626 7.73895 24.5223C7.41935 25.282 6.95122 25.9703 6.36203 26.5466C5.77284 27.123 5.07446 27.5759 4.30788 27.8787C3.54129 28.1815 2.72195 28.3281 1.89793 28.31C1.77186 28.3089 1.64682 28.3327 1.52994 28.38C1.41306 28.4272 1.30664 28.4971 1.21676 28.5855C1.12687 28.6739 1.05527 28.7791 1.00606 28.8952C0.956846 29.0113 0.930978 29.1359 0.929932 29.262V34.022C0.938384 35.0402 1.35094 36.0134 2.07688 36.7276C2.80281 37.4417 3.78266 37.8382 4.80093 37.83H55.1299C56.1482 37.8382 57.1281 37.4417 57.854 36.7276C58.5799 36.0134 58.9925 35.0402 59.0009 34.022V29.262C58.9999 29.1359 58.974 29.0113 58.9248 28.8952C58.8756 28.7791 58.804 28.6739 58.7141 28.5855C58.6242 28.4971 58.5178 28.4272 58.4009 28.38C58.284 28.3327 58.159 28.3089 58.0329 28.31C57.2089 28.3281 56.3896 28.1815 55.623 27.8787C54.8564 27.5759 54.158 27.123 53.5688 26.5466C52.9796 25.9703 52.5115 25.282 52.1919 24.5223C51.8723 23.7626 51.7077 22.9467 51.7077 22.1225C51.7077 21.2982 51.8723 20.4823 52.1919 19.7226C52.5115 18.9629 52.9796 18.2746 53.5688 17.6983C54.158 17.1219 54.8564 16.669 55.623 16.3662C56.3896 16.0634 57.2089 15.9168 58.0329 15.935C58.159 15.936 58.284 15.9122 58.4009 15.8649C58.5178 15.8177 58.6242 15.7478 58.7141 15.6594C58.804 15.571 58.8756 15.4658 58.9248 15.3497C58.974 15.2337 58.9999 15.109 59.0009 14.983V9.27095C58.9922 8.5077 58.6818 7.7789 58.1375 7.24378C57.5932 6.70865 56.8592 6.41068 56.0959 6.41495ZM14.4799 35.926H4.80093C4.29287 35.9286 3.80432 35.7305 3.44171 35.3746C3.07909 35.0187 2.87178 34.534 2.86493 34.026V30.157C4.8533 29.9522 6.6951 29.0174 8.03417 27.5333C9.37324 26.0492 10.1144 24.1213 10.1144 22.1225C10.1144 20.1236 9.37324 18.1957 8.03417 16.7116C6.6951 15.2276 4.8533 14.2927 2.86493 14.088V9.27095C2.86705 9.01687 2.96981 8.77398 3.15069 8.59553C3.33158 8.41708 3.57584 8.31762 3.82993 8.31895H14.4799V35.926ZM57.0639 14.088C55.0756 14.2927 53.2338 15.2276 51.8947 16.7116C50.5556 18.1957 49.8144 20.1236 49.8144 22.1225C49.8144 24.1213 50.5556 26.0492 51.8947 27.5333C53.2338 29.0174 55.0756 29.9522 57.0639 30.157V34.022C57.0571 34.53 56.8498 35.0147 56.4872 35.3706C56.1245 35.7265 55.636 35.9246 55.1279 35.922H22.2219V8.31895H56.0959C56.222 8.3179 56.347 8.34169 56.4639 8.38896C56.5808 8.43623 56.6872 8.50606 56.7771 8.59446C56.867 8.68287 56.9386 8.78811 56.9878 8.90418C57.037 9.02025 57.0629 9.14488 57.0639 9.27095V14.088Z"
        fill="#008986" />
    <path
        d="M33.8499 20.19C35.9392 20.19 37.6329 18.4963 37.6329 16.407C37.6329 14.3177 35.9392 12.624 33.8499 12.624C31.7606 12.624 30.0669 14.3177 30.0669 16.407C30.0669 18.4963 31.7606 20.19 33.8499 20.19Z"
        fill="white" stroke="#008986" />
    <path
        d="M45.5049 31.6319C47.5942 31.6319 49.2879 29.9382 49.2879 27.8489C49.2879 25.7596 47.5942 24.0659 45.5049 24.0659C43.4156 24.0659 41.7219 25.7596 41.7219 27.8489C41.7219 29.9382 43.4156 31.6319 45.5049 31.6319Z"
        fill="white" stroke="#008986" />
    <path
        d="M47.4159 14.461C46.8736 13.9505 46.1574 13.6655 45.4126 13.6638C44.6679 13.6622 43.9504 13.944 43.4058 14.452L31.9908 25.735C31.7116 26.0047 31.4896 26.3281 31.3384 26.6857C31.1872 27.0433 31.1098 27.4278 31.1109 27.816C31.1144 28.5983 31.4233 29.3483 31.9719 29.906C32.5291 30.4535 33.2801 30.7587 34.0613 30.7552C34.8425 30.7516 35.5906 30.4396 36.1428 29.887L47.4159 18.471C47.941 17.9358 48.2351 17.2159 48.2351 16.466C48.2351 15.7162 47.941 14.9963 47.4159 14.461Z"
        fill="#008986" stroke="white" />
</svg>